# xmcd
# Track frame offsets:
# 150
# 18062
# 37909
# 64414
# 82168
# 98588
# 116828
# 136223
# 147982
# 158686
# 176392
# 203344
# 220157
# 236351
# 254464
#
# Disc length: 3603 seconds
# Revision: 0
# Processed by: cddbd v1.5.2PL0 Copyright (c) Steve Scherf et al.
# Submitted via: VisiTrax 2.9.10.228 - For more info visit www.synapsa.com
#
DISCID=c20e110f
DTITLE=Margaret Becker, Marire Brennan, Joanne Hogg, Kristyn Getty - New iris
DTITLE=h hymns 2
DYEAR=2008
DGENRE=Gospel
TTITLE0=Jesus your name
TTITLE1=Prolouge
TTITLE2=Oh to see the dawn
TTITLE3=Joy has dawned upon the world
TTITLE4=Jesus is lord
TTITLE5=My heart is filled with thankfullnes
TTITLE6=My hope resr firm
TTITLE7=Hail to the gladdeing light
TTITLE8=Over field of green
TTITLE9=How good how plessing
TTITLE10=The wonder of grace
TTITLE11=See what a morning
TTITLE12=Father we have sinned
TTITLE13=Like the starlight of crystal
TTITLE14=Who hears
EXTD=
EXTT0=
EXTT1=
EXTT2=
EXTT3=
EXTT4=
EXTT5=
EXTT6=
EXTT7=
EXTT8=
EXTT9=
EXTT10=
EXTT11=
EXTT12=
EXTT13=
EXTT14=
PLAYORDER=
